<svg width="32" height="29" viewBox="0 0 32 29" fill="none" xmlns="http://www.w3.org/2000/svg">
<path d="M9.77543 0C10.3277 0 10.7754 0.447715 10.7754 1V9.53027L19.7754 11.9424V1C19.7754 0.44773 20.2232 2.26932e-05 20.7754 0H24.7754C25.3277 0 25.7754 0.447715 25.7754 1V13.5498L30.3809 14.7842C30.914 14.9272 31.2305 15.4756 31.0879 16.0088L30.0518 19.873C29.9088 20.4064 29.3606 20.723 28.8272 20.5801L25.7754 19.7617V28C25.7754 28.5523 25.3277 29 24.7754 29H20.7754C20.2232 29 19.7754 28.5523 19.7754 28V18.1543L10.7754 15.7432V28C10.7754 28.5523 10.3277 29 9.77543 29H5.77543C5.22316 29 4.77543 28.5523 4.77543 28V14.1348L0.741248 13.0547C0.207962 12.9118 -0.108435 12.3634 0.0342164 11.8301L1.06937 7.96582C1.21231 7.43249 1.76063 7.11606 2.29398 7.25879L4.77543 7.92285V1C4.77543 0.44773 5.22316 2.26932e-05 5.77543 0H9.77543Z" fill="#232323"/>
</svg>
